HIERARCHY
ROOT Hips
{
	OFFSET -3.958830 18.904000 13.208200
	CHANNELS 6 Xposition Yposition Zposition Zrotation Yrotation Xrotation 
	JOINT LHipJoint
	{
		OFFSET 0.000000 0.000000 0.000000
		CHANNELS 3 Zrotation Yrotation Xrotation
		JOINT LeftUpLeg
		{
			OFFSET 1.800000 -1.400000 0.085000
			CHANNELS 3 Zrotation Yrotation Xrotation
			JOINT LeftLeg
			{
				OFFSET 2.215000 -6.000000 0.000000
				CHANNELS 3 Zrotation Yrotation Xrotation
				JOINT LeftFoot
				{
					OFFSET 2.500000 -6.900000 0.000000
					CHANNELS 3 Zrotation Yrotation Xrotation
					JOINT LeftToeBase
					{
						OFFSET 0.200000 -0.500000 1.950000
						CHANNELS 3 Zrotation Yrotation Xrotation
						End Site
						{
							OFFSET 0.000000 0.000000 0.000000
						}
					}
				}
			}
		}
	}
	JOINT RHipJoint
	{
		OFFSET 0.000000 0.000000 0.000000
		CHANNELS 3 Zrotation Yrotation Xrotation
		JOINT RightUpLeg
		{
			OFFSET -1.800000 -1.400000 0.085000
			CHANNELS 3 Zrotation Yrotation Xrotation
			JOINT RightLeg
			{
				OFFSET -2.215000 -6.000000 0.000000
				CHANNELS 3 Zrotation Yrotation Xrotation
				JOINT RightFoot
				{
					OFFSET -2.500000 -6.900000 0.000000
					CHANNELS 3 Zrotation Yrotation Xrotation
					JOINT RightToeBase
					{
						OFFSET -0.200000 -0.500000 1.950000
						CHANNELS 3 Zrotation Yrotation Xrotation
						End Site
						{
							OFFSET 0.000000 0.000000 0.000000
						}
					}
				}
			}
		}
	}
	JOINT LowerBack
	{
		OFFSET 0.000000 0.000000 0.000000
		CHANNELS 3 Zrotation Yrotation Xrotation
		JOINT Spine
		{
			OFFSET -0.087000 1.940000 -0.288900
			CHANNELS 3 Zrotation Yrotation Xrotation
			JOINT Spine1
			{
				OFFSET 0.000000 1.950000 0.060000
				CHANNELS 3 Zrotation Yrotation Xrotation
				JOINT Neck
				{
					OFFSET 0.000000 0.000000 0.000000
					CHANNELS 3 Zrotation Yrotation Xrotation
					JOINT Neck1
					{
						OFFSET 0.000000 1.600000 0.340000
						CHANNELS 3 Zrotation Yrotation Xrotation
						JOINT Head
						{
							OFFSET 0.000000 1.667000 -0.240000
							CHANNELS 3 Zrotation Yrotation Xrotation
							End Site
							{
								OFFSET 0.000000 0.000000 0.000000
							}
						}
					}
				}
				JOINT LeftShoulder
				{
					OFFSET 0.000000 0.000000 0.000000
					CHANNELS 3 Zrotation Yrotation Xrotation
					JOINT LeftArm
					{
						OFFSET 2.700000 1.550000 -0.730000
						CHANNELS 3 Zrotation Yrotation Xrotation
						JOINT LeftForeArm
						{
							OFFSET 5.450000 0.000000 0.000000
							CHANNELS 3 Zrotation Yrotation Xrotation
							JOINT LeftHand
							{
								OFFSET 3.450000 0.000000 0.000000
								CHANNELS 3 Zrotation Yrotation Xrotation
								JOINT LeftHandIndex1
								{
									OFFSET 0.750000 0.000000 0.000000
									CHANNELS 3 Zrotation Yrotation Xrotation
									End Site
									{
										OFFSET 0.000000 0.000000 0.000000
									}
								}
							}
						}
					}
				}
				JOINT RightShoulder
				{
					OFFSET 0.000000 0.000000 0.000000
					CHANNELS 3 Zrotation Yrotation Xrotation
					JOINT RightArm
					{
						OFFSET -2.700000 1.550000 -0.730000
						CHANNELS 3 Zrotation Yrotation Xrotation
						JOINT RightForeArm
						{
							OFFSET -5.450000 0.000000 0.000000
							CHANNELS 3 Zrotation Yrotation Xrotation
							JOINT RightHand
							{
								OFFSET -3.450000 0.000000 0.000000
								CHANNELS 3 Zrotation Yrotation Xrotation
								JOINT RightHandIndex1
								{
									OFFSET -0.750000 0.000000 0.000000
									CHANNELS 3 Zrotation Yrotation Xrotation
									End Site
									{
										OFFSET 0.000000 0.000000 0.000000
									}
								}
							}
						}
					}
				}
			}
		}
	}
}
MOTION
Frames: 9
Frame Time: 0.016667
-0.147470 17.563250 -0.196710 -10.371071 12.574426 -12.156803 -15.105816 12.907132 2.142136 22.906184 2.757503 -11.177392 -3.953980 6.958857 14.610513 -1.029967 6.184793 2.757503 -0.227930 -0.617230 -0.630980 18.372169 -11.298241 2.870157 -7.034636 -1.086987 5.275247 8.800896 -6.564649 9.180706 -0.334568 -5.675593 2.699731 0.104810 1.482300 0.224020 -3.996077 -0.244271 -7.247454 0.879101 -1.142258 21.148145 -17.741026 8.975754 20.938050 6.585467 -7.236658 -9.677577 -10.559402 1.534787 23.179417 6.878350 -9.014700 -6.921650 8.090682 -2.271454 1.981807 -16.160509 -16.089268 -0.141398 143.424035 -8.992325 -54.521217 -4.453510 3.047530 0.425410 0.717410 -0.756560 0.289120 -19.907466 12.824739 5.186100 -12.874259 16.949088 -8.117956 -30.241312 22.468762 -7.323912 1.710090 -1.757958 -0.838970 0.932150 0.767870 0.017960 
-0.147070 17.553830 -0.207920 -10.360689 12.473811 -12.929756 -15.149056 12.938730 2.138402 23.188750 2.928077 -10.366968 -3.996030 7.036723 14.398397 -1.096276 6.350212 2.715639 -0.269190 -0.654280 -0.668580 18.332731 -11.256391 2.860854 -7.261352 -1.166789 6.036676 8.828445 -6.656106 9.238107 -0.310291 -5.802877 2.650178 0.138770 1.561720 0.219860 -3.873786 -0.337314 -7.219214 -0.189605 -0.855687 22.306365 -16.356288 8.971590 21.014062 6.553579 -7.246968 -9.034292 -10.088280 2.131490 21.394366 5.970610 -8.312250 -6.988500 8.728222 -0.835179 1.553770 -17.847847 -17.241004 1.150425 144.126175 -9.070273 -55.749294 -4.545050 3.027068 0.406840 0.781160 -0.816200 0.272980 -20.403586 11.782615 4.640468 -10.648338 19.356842 -8.910740 -34.445625 23.807062 -9.351931 1.650939 -1.757448 -0.904970 0.989470 0.829550 0.010620 
-0.142670 17.539490 -0.216820 -10.464586 12.499495 -13.770679 -15.145428 12.906745 2.133845 23.552473 3.065450 -9.388889 -4.100287 7.094408 14.012729 -1.132109 6.491123 2.698551 -0.300440 -0.694710 -0.680260 18.336629 -11.275789 2.867925 -7.562753 -1.269965 6.845197 9.003259 -6.822670 9.348918 -0.316649 -5.939907 2.605511 0.149140 1.630470 0.221440 -3.886704 -0.234284 -7.224617 -0.899910 -0.571020 23.685962 -14.826811 8.838792 20.917081 5.979061 -6.946439 -8.499199 -9.258452 3.177815 20.151485 5.705300 -7.261780 -7.086340 9.914000 0.465696 1.447578 -20.605612 -18.122418 2.410237 144.872118 -8.873259 -56.829578 -4.607199 3.014344 0.411530 0.827930 -0.850640 0.267540 -20.336528 10.600710 4.401913 -6.313519 22.024377 -9.988327 -41.915668 27.072708 -13.343930 1.578961 -1.721886 -0.960800 1.041660 0.867580 0.001360 
-0.143910 17.531440 -0.218210 -10.367605 12.796835 -14.459458 -15.135145 12.894474 2.113775 23.586390 3.132142 -8.679505 -4.026771 7.090812 13.850624 -1.115141 6.506839 2.699062 -0.316240 -0.718720 -0.666060 18.339121 -11.327411 2.880515 -7.963134 -1.415153 7.587254 8.983220 -6.969692 9.402023 -0.344242 -6.036831 2.567494 0.129670 1.618620 0.237040 -3.914439 -0.117982 -7.228946 -1.799918 0.053795 24.796895 -13.130735 8.979195 20.950040 5.073767 -5.926834 -8.294863 -7.589728 3.978061 20.146493 5.578120 -5.966300 -6.778640 10.989030 1.151611 1.439259 -22.564525 -19.277612 3.396338 144.919348 -8.822219 -57.119433 -4.623336 3.039223 0.419140 0.835330 -0.839130 0.253670 -19.532942 9.480329 4.914960 -0.210801 23.411035 -10.657249 -52.046086 31.491015 -19.468551 1.514370 -1.654842 -0.960240 1.016930 0.869360 -0.015570 
-0.146070 17.533280 -0.209380 -9.933100 12.956239 -14.743102 -15.112821 12.890970 2.123386 23.236348 3.071238 -7.936105 -4.182984 7.024285 13.309921 -1.053772 6.388609 2.734064 -0.296880 -0.725330 -0.574390 18.340959 -11.405631 2.881123 -8.576744 -1.495370 7.902005 8.771917 -7.082216 9.555302 -0.403367 -6.013271 2.568812 0.068460 1.502910 0.243260 -3.955794 -0.006868 -7.250452 -2.807330 0.849900 25.097075 -11.661275 9.218567 20.857174 3.855441 -4.563383 -8.433925 -5.769781 4.308797 22.441619 5.961260 -4.672530 -7.110400 10.420134 0.394283 1.751802 -22.081769 -18.463006 2.858852 144.776172 -9.166572 -57.109551 -4.538489 3.028348 0.488100 0.763060 -0.753700 0.225790 -16.560012 9.187097 5.731200 4.604376 22.819141 -10.940007 -62.560503 37.182525 -27.061515 1.458833 -1.454554 -0.919260 0.947570 0.817130 -0.058190 
-0.142750 17.525290 -0.202500 -9.622423 12.827941 -15.404043 -15.120616 12.954610 2.141717 23.218008 3.104837 -7.150229 -4.274667 7.127198 13.422193 -1.048382 6.452803 2.709470 -0.343760 -0.798520 -0.556460 18.310950 -11.440677 2.871563 -9.124535 -1.580881 8.521313 8.437963 -7.236617 9.967332 -0.417452 -6.064551 2.544745 0.016720 1.472540 0.247050 -3.904262 -0.054624 -7.267979 -3.776892 1.525313 26.412653 -10.079729 9.100277 20.104257 3.046529 -3.630003 -8.368928 -4.339259 4.738902 22.775731 5.390900 -3.343460 -6.996730 10.552228 1.781499 1.438290 -23.344748 -18.990415 3.984682 145.152444 -9.542615 -57.277157 -4.552908 3.016226 0.533600 0.755050 -0.738260 0.185660 -15.182457 7.334286 6.240091 10.110909 23.004282 -9.807883 -74.405189 42.591525 -37.329086 1.352048 -1.195670 -0.939810 0.920150 0.838880 -0.098960 
-0.136140 17.520600 -0.194290 -9.199752 12.382192 -15.965576 -15.093467 13.034390 2.166427 23.117768 3.049500 -6.377115 -4.364340 7.246046 13.805694 -0.997940 6.490609 2.684184 -0.404290 -0.895280 -0.537840 18.300680 -11.514113 2.872557 -9.803687 -1.609991 8.902353 8.144509 -7.396027 10.507983 -0.428470 -6.077154 2.529610 -0.070650 1.417070 0.254760 -3.928558 -0.072744 -7.325279 -4.156013 1.830657 27.974838 -9.190364 8.559550 18.819696 2.122172 -3.319170 -8.876764 -4.052528 5.157729 23.616388 5.555120 -2.485600 -6.699950 10.729943 2.945332 1.544250 -25.404358 -17.850184 4.060437 145.408379 -9.688248 -56.898605 -4.531969 3.019137 0.585030 0.718610 -0.702660 0.136420 -13.756081 5.866564 7.208183 14.317635 21.341814 -8.143856 -88.722043 46.363416 -50.900887 1.353136 -0.922418 -0.937290 0.863770 0.853640 -0.130570 
-0.125910 17.512960 -0.177430 -8.601148 11.792788 -16.025566 -15.079501 13.157752 2.213367 22.758353 2.875813 -6.043469 -4.533411 7.361730 14.387369 -0.930254 6.484541 2.684694 -0.444750 -0.974110 -0.498320 18.266052 -11.573601 2.866348 -10.602315 -1.548278 8.762096 8.042377 -7.541904 11.074699 -0.450066 -6.018320 2.544378 -0.168870 1.350170 0.261400 -3.896459 -0.179101 -7.393301 -4.395827 2.136222 28.926415 -8.666682 7.839655 16.672648 1.564700 -3.159732 -9.535597 -4.191246 4.923338 25.671288 5.652350 -2.259970 -6.467300 9.138275 3.736217 1.391569 -25.711351 -15.972232 3.848630 145.610467 -10.478860 -56.370333 -4.477017 2.980457 0.651600 0.662300 -0.643100 0.103330 -11.397648 4.572158 8.332170 16.961150 18.017086 -5.732379 -104.994026 46.849499 -67.256667 1.492845 -0.850384 -0.918380 0.818770 0.846100 -0.156320 
-0.105000 17.502140 -0.147050 -8.459912 10.881379 -15.717441 -14.987161 13.199259 2.267478 22.669531 2.599313 -6.230852 -4.678794 7.509850 15.407298 -0.858724 6.428742 2.671567 -0.481270 -1.016330 -0.492590 18.297412 -11.738578 2.903594 -10.980828 -1.527849 8.093037 7.980726 -7.624747 11.577002 -0.461571 -5.907921 2.582734 -0.249380 1.266160 0.243030 -4.065989 0.050930 -7.542665 -3.045901 1.641146 29.698354 -9.197407 6.117299 12.807373 1.141566 -3.692817 -10.308875 -5.550906 5.448262 28.830883 6.607080 -2.138900 -5.757620 7.048574 4.439419 1.266581 -25.924394 -12.169167 2.861350 145.990409 -11.191339 -54.643498 -4.374570 2.966082 0.706820 0.589920 -0.579380 0.075020 -8.840885 3.558442 9.429309 18.630189 14.133510 -2.845891 -120.813923 45.163960 -83.910166 1.670744 -1.015635 -0.888450 0.770220 0.832350 -0.166920 
